<mxfile><diagram id="E6zpizA0RhnLOfcVP0gZ" name="Page-1"><mxGraphModel dx="846" dy="673" grid="1" gridSize="10" guides="1" tooltips="1" connect="1" arrows="1" fold="1" page="1" pageScale="1" pageWidth="827" pageHeight="1169" math="0" shadow="0"><root><mxCell id="0"/><mxCell id="1" parent="0"/><mxCell id="2" value="" style="shape=image;verticalLabelPosition=bottom;labelBackgroundColor=default;verticalAlign=top;aspect=fixed;imageAspect=0;image=https://o.remove.bg/downloads/36e8f4c1-4ffd-4bcb-a503-a184bdd17478/Screenshot_2023-10-31_10.23.28-removebg-preview.png;points=[[0.36,0.83,0,0,0],[0.49,0.83,0,0,0],[0.62,0.83,0,0,0]];" vertex="1" parent="1"><mxGeometry x="320" y="210" width="139.39" height="138" as="geometry"/></mxCell></root></mxGraphModel></diagram></mxfile>